<?xml version="1.0" encoding="UTF-8" standalone="no"?>
<!-- Created with Inkscape (http://www.inkscape.org/) -->

<svg
   xmlns:dc="http://purl.org/dc/elements/1.1/"
   xmlns:cc="http://creativecommons.org/ns#"
   xmlns:rdf="http://www.w3.org/1999/02/22-rdf-syntax-ns#"
   xmlns:svg="http://www.w3.org/2000/svg"
   xmlns="http://www.w3.org/2000/svg"
   xmlns:sodipodi="http://sodipodi.sourceforge.net/DTD/sodipodi-0.dtd"
   xmlns:inkscape="http://www.inkscape.org/namespaces/inkscape"
   width="14"
   height="42"
   viewBox="0 0 14 42"
   version="1.1"
   id="svg8"
   inkscape:version="0.92.2 (5c3e80d, 2017-08-06)"
   sodipodi:docname="warningsign.svg"
   inkscape:export-filename="D:\SteamLibrary\steamapps\common\GarrysMod\garrysmod\addons\reality_smallscripts\materials\reality_smallscripts\warningsign.png"
   inkscape:export-xdpi="96"
   inkscape:export-ydpi="96">
  <defs
     id="defs2" />
  <sodipodi:namedview
     id="base"
     pagecolor="#ffffff"
     bordercolor="#666666"
     borderopacity="1.0"
     inkscape:pageopacity="0.0"
     inkscape:pageshadow="2"
     inkscape:zoom="8"
     inkscape:cx="35.333121"
     inkscape:cy="14.866472"
     inkscape:document-units="px"
     inkscape:current-layer="layer1"
     showgrid="false"
     units="px"
     showborder="true"
     borderlayer="true"
     inkscape:showpageshadow="false"
     inkscape:window-width="2559"
     inkscape:window-height="1377"
     inkscape:window-x="1912"
     inkscape:window-y="-8"
     inkscape:window-maximized="1"
     inkscape:pagecheckerboard="true" />
  <metadata
     id="metadata5">
    <rdf:RDF>
      <cc:Work
         rdf:about="">
        <dc:format>image/svg+xml</dc:format>
        <dc:type
           rdf:resource="http://purl.org/dc/dcmitype/StillImage" />
        <dc:title></dc:title>
      </cc:Work>
    </rdf:RDF>
  </metadata>
  <g
     inkscape:label="Layer 1"
     inkscape:groupmode="layer"
     id="layer1"
     transform="translate(0,-631.5333)">
    <path
       style="opacity:1;fill:#ffdb4f;fill-opacity:1;fill-rule:evenodd;stroke:none;stroke-width:59.50291443;stroke-linecap:round;stroke-linejoin:round;stroke-miterlimit:4;stroke-dasharray:none;stroke-dashoffset:0;stroke-opacity:1;paint-order:markers stroke fill"
       d="m -89.5,657.45518 -24,40.40625 h 48 z m -0.08789,13.09765 c 1.759157,0 3.516325,0.62246 3.822266,1.86914 0.61188,2.49333 -2.598505,15.58399 -3.822266,15.58399 -1.223761,0 -4.436098,-13.09066 -3.824218,-15.58399 0.305941,-1.24668 2.065061,-1.86914 3.824218,-1.86914 z m -0.09766,18.85938 a 2.9294821,2.9294821 0 0 1 2.929688,2.92773 2.9294821,2.9294821 0 0 1 -2.929688,2.92969 2.9294821,2.9294821 0 0 1 -2.927734,-2.92969 2.9294821,2.9294821 0 0 1 2.927734,-2.92773 z"
       id="path3713"
       inkscape:connector-curvature="0" />
    <path
       transform="matrix(1.2070415,0,0,1.0998144,-82.468996,-70.707788)"
       inkscape:transform-center-y="-6.312714"
       d="m 24.000001,632.31384 19.883325,34.43894 -39.7666527,0 z"
       inkscape:randomized="0"
       inkscape:rounded="0"
       inkscape:flatsided="true"
       sodipodi:arg2="-0.52359878"
       sodipodi:arg1="-1.5707963"
       sodipodi:r2="11.479644"
       sodipodi:r1="22.959288"
       sodipodi:cy="655.27313"
       sodipodi:cx="24"
       sodipodi:sides="3"
       id="path3731"
       style="opacity:1;fill:#ffdb4f;fill-opacity:1;fill-rule:evenodd;stroke:none;stroke-width:50;stroke-linecap:round;stroke-linejoin:round;stroke-miterlimit:4;stroke-dasharray:none;stroke-dashoffset:0;stroke-opacity:1;paint-order:markers stroke fill"
       sodipodi:type="star" />
    <path
       inkscape:connector-curvature="0"
       id="path3733"
       d="m -53.588388,636.88857 c -1.602183,0 -3.203781,0.5677 -3.482422,1.70313 -0.557281,2.27084 2.36786,14.19336 3.482422,14.19336 1.114562,0 4.039703,-11.92252 3.482422,-14.19336 -0.278641,-1.13543 -1.880239,-1.70313 -3.482422,-1.70313 z m -0.08789,17.17578 a 2.6680775,2.6680775 0 0 0 -2.667968,2.66797 2.6680775,2.6680775 0 0 0 2.667968,2.66797 2.6680775,2.6680775 0 0 0 2.667969,-2.66797 2.6680775,2.6680775 0 0 0 -2.667969,-2.66797 z"
       style="opacity:1;fill:#a02c2c;fill-opacity:1;fill-rule:evenodd;stroke:none;stroke-width:53.05414581;stroke-linecap:round;stroke-linejoin:round;stroke-miterlimit:4;stroke-dasharray:none;stroke-dashoffset:0;stroke-opacity:1;paint-order:markers stroke fill" />
    <path
       style="opacity:1;fill:#ffffff;fill-opacity:1;fill-rule:evenodd;stroke:none;stroke-width:97.24291992;stroke-linecap:round;stroke-linejoin:round;stroke-miterlimit:4;stroke-dasharray:none;stroke-dashoffset:0;stroke-opacity:1;paint-order:markers stroke fill"
       d="m 7,631.90244 c -2.93664,0 -5.872209,1.04054 -6.382929,3.12167 -1.021441,4.16222 4.340049,26.015 6.382929,26.015 2.04288,0 7.40437,-21.85278 6.382929,-26.015 C 12.872209,632.94298 9.93664,631.90244 7,631.90244 Z m -0.161094,31.48148 a 4.8903179,4.8903179 0 0 0 -4.890117,4.89012 4.8903179,4.8903179 0 0 0 4.890117,4.89012 4.8903179,4.8903179 0 0 0 4.890119,-4.89012 4.8903179,4.8903179 0 0 0 -4.890119,-4.89012 z"
       id="path3724"
       inkscape:connector-curvature="0" />
  </g>
</svg>
