<?xml version="1.0" encoding="UTF-8" standalone="no"?>
<!-- Created with Inkscape (http://www.inkscape.org/) -->

<svg
   xmlns:dc="http://purl.org/dc/elements/1.1/"
   xmlns:cc="http://creativecommons.org/ns#"
   xmlns:rdf="http://www.w3.org/1999/02/22-rdf-syntax-ns#"
   xmlns:svg="http://www.w3.org/2000/svg"
   xmlns="http://www.w3.org/2000/svg"
   xmlns:sodipodi="http://sodipodi.sourceforge.net/DTD/sodipodi-0.dtd"
   xmlns:inkscape="http://www.inkscape.org/namespaces/inkscape"
   width="16"
   height="16"
   viewBox="0 0 4.2333332 4.2333332"
   version="1.1"
   id="svg8"
   inkscape:export-filename="D:\SteamLibrary\steamapps\common\GarrysMod\garrysmod\addons\reality_hud\materials\r_hud\mic_muted_small.png"
   inkscape:export-xdpi="96"
   inkscape:export-ydpi="96"
   inkscape:version="0.92.2 (5c3e80d, 2017-08-06)"
   sodipodi:docname="ayy lmao.svg">
  <defs
     id="defs2" />
  <sodipodi:namedview
     id="base"
     pagecolor="#313131"
     bordercolor="#666666"
     borderopacity="1.0"
     inkscape:pageopacity="0.15294118"
     inkscape:pageshadow="2"
     inkscape:zoom="23.703125"
     inkscape:cx="-4.3535124"
     inkscape:cy="8.587352"
     inkscape:document-units="px"
     inkscape:current-layer="layer1"
     showgrid="false"
     inkscape:pagecheckerboard="false"
     units="px"
     borderlayer="true"
     inkscape:showpageshadow="false"
     inkscape:window-width="1920"
     inkscape:window-height="1017"
     inkscape:window-x="-8"
     inkscape:window-y="-8"
     inkscape:window-maximized="1"
     showguides="true"
     inkscape:guide-bbox="true" />
  <metadata
     id="metadata5">
    <rdf:RDF>
      <cc:Work
         rdf:about="">
        <dc:format>image/svg+xml</dc:format>
        <dc:type
           rdf:resource="http://purl.org/dc/dcmitype/StillImage" />
        <dc:title></dc:title>
      </cc:Work>
    </rdf:RDF>
  </metadata>
  <g
     inkscape:label="Layer 1"
     inkscape:groupmode="layer"
     id="layer1"
     transform="translate(0,-292.76667)">
    <path
       style="fill:#000000;stroke-width:0.26458332"
       d=""
       id="path851"
       inkscape:connector-curvature="0" />
    <g
       transform="matrix(1,0,0,1.1129105,-4.8943732,-33.295445)"
       id="g965">
      <path
         inkscape:connector-curvature="0"
         style="opacity:1;fill:#ffffff;fill-opacity:1;fill-rule:evenodd;stroke:none;stroke-width:5.65357447;stroke-linecap:butt;stroke-linejoin:miter;stroke-miterlimit:4;stroke-dasharray:none;stroke-dashoffset:0;stroke-opacity:1;paint-order:normal"
         d="m 2.3676258,293.51488 -0.8167481,0.68443 -0.1146828,0.0963 H 0.38419991 v 1.17623 H 1.4361949 l 0.1146828,0.0963 0.8167481,0.68369 v -1.36811 z"
         id="path959" />
      <path
         inkscape:connector-curvature="0"
         style="opacity:1;fill:#ffffff;fill-opacity:1;fill-rule:evenodd;stroke:none;stroke-width:5.65357447;stroke-linecap:butt;stroke-linejoin:miter;stroke-miterlimit:4;stroke-dasharray:none;stroke-dashoffset:0;stroke-opacity:1;paint-order:normal"
         d="m 2.7498792,293.78414 v 0.33833 c 0.4181442,2.4e-4 0.7604677,0.34272 0.7604677,0.76092 0,0.4182 -0.3423234,0.76111 -0.7604677,0.76136 v 0.33834 a 1.0994927,1.0994927 0 0 0 1.0992543,-1.0997 1.0994927,1.0994927 0 0 0 -1.0992543,-1.09925 z"
         id="path961" />
      <path
         style="opacity:1;fill:#ffffff;fill-opacity:1;fill-rule:evenodd;stroke:none;stroke-width:4.85086346;stroke-linecap:butt;stroke-linejoin:miter;stroke-miterlimit:4;stroke-dasharray:none;stroke-dashoffset:0;stroke-opacity:1;paint-order:normal"
         d="m 2.7498792,294.41886 v 0.92943 c 0.258469,-2.3e-4 0.4639682,-0.20642 0.4639682,-0.46495 0,-0.25853 -0.2054992,-0.46421 -0.4639682,-0.46448 z"
         id="path963"
         inkscape:connector-curvature="0" />
    </g>
    <g
       id="g1018"
       style="fill:#ff2a2a">
      <path
         id="rect863"
         transform="matrix(0.26458333,0,0,0.26458333,0,292.76667)"
         d="M 8.9492188 2.2441406 L 5.8613281 5.1230469 L 5.4277344 5.5273438 L 1.4511719 5.5273438 L 1.4511719 10.474609 L 2.8339844 10.474609 L 8.9492188 4.359375 L 8.9492188 2.2441406 z M 8.9492188 9.703125 L 6.8515625 11.802734 L 8.9492188 13.755859 L 8.9492188 9.703125 z "
         style="opacity:1;fill:#ff2a2a;fill-opacity:1;fill-rule:evenodd;stroke:none;stroke-width:22.54191399;stroke-linecap:butt;stroke-linejoin:miter;stroke-miterlimit:4;stroke-dasharray:none;stroke-dashoffset:0;stroke-opacity:1;paint-order:normal" />
      <path
         id="path904"
         transform="matrix(0.26458333,0,0,0.26458333,0,292.76667)"
         d="M 13.595703 5.0585938 L 12.632812 6.0214844 C 13.024279 6.5684854 13.267578 7.2509117 13.267578 8 C 13.267578 9.7590678 11.972966 11.202067 10.392578 11.203125 L 10.392578 12.625 A 4.1555631 4.6247699 0 0 0 14.548828 8 A 4.1555631 4.6247699 0 0 0 13.595703 5.0585938 z "
         style="opacity:1;fill:#ff2a2a;fill-opacity:1;fill-rule:evenodd;stroke:none;stroke-width:22.54191399;stroke-linecap:butt;stroke-linejoin:miter;stroke-miterlimit:4;stroke-dasharray:none;stroke-dashoffset:0;stroke-opacity:1;paint-order:normal" />
      <path
         id="path867"
         transform="matrix(0.26458333,0,0,0.26458333,0,292.76667)"
         d="M 11.806641 6.8457031 L 10.392578 8.2617188 L 10.392578 9.9550781 C 11.369469 9.9540954 12.146484 9.0874457 12.146484 8 C 12.146484 7.5646958 12.018576 7.1686005 11.806641 6.8457031 z "
         style="opacity:1;fill:#ff2a2a;fill-opacity:1;fill-rule:evenodd;stroke:none;stroke-width:19.34134674;stroke-linecap:butt;stroke-linejoin:miter;stroke-miterlimit:4;stroke-dasharray:none;stroke-dashoffset:0;stroke-opacity:1;paint-order:normal" />
      <path
         style="color:#000000;font-style:normal;font-variant:normal;font-weight:normal;font-stretch:normal;font-size:medium;line-height:normal;font-family:sans-serif;font-variant-ligatures:normal;font-variant-position:normal;font-variant-caps:normal;font-variant-numeric:normal;font-variant-alternates:normal;font-feature-settings:normal;text-indent:0;text-align:start;text-decoration:none;text-decoration-line:none;text-decoration-style:solid;text-decoration-color:#000000;letter-spacing:normal;word-spacing:normal;text-transform:none;writing-mode:lr-tb;direction:ltr;text-orientation:mixed;dominant-baseline:auto;baseline-shift:baseline;text-anchor:start;white-space:normal;shape-padding:0;clip-rule:nonzero;display:inline;overflow:visible;visibility:visible;opacity:1;isolation:auto;mix-blend-mode:normal;color-interpolation:sRGB;color-interpolation-filters:linearRGB;solid-color:#000000;solid-opacity:1;vector-effect:none;fill:#ff2a2a;fill-opacity:1;fill-rule:nonzero;stroke:none;stroke-width:0.39687499;stroke-linecap:round;stroke-linejoin:miter;stroke-miterlimit:4;stroke-dasharray:none;stroke-dashoffset:0;stroke-opacity:1;color-rendering:auto;image-rendering:auto;shape-rendering:auto;text-rendering:auto;enable-background:accumulate"
         d="m 3.4900763,293.50359 a 0.3021507,0.2571555 45 0 0 -0.394588,-0.0259 l -2.3783045,2.3783 a 0.3021507,0.2571555 45 1 0 0.4268424,0.42684 l 2.3783041,-2.3783 a 0.3021507,0.2571555 45 0 0 -0.03225,-0.4009 z"
         id="path1000"
         inkscape:connector-curvature="0" />
    </g>
  </g>
</svg>
