<?xml version="1.0" encoding="UTF-8" standalone="no"?>
<!-- Created with Inkscape (http://www.inkscape.org/) -->

<svg
   xmlns:dc="http://purl.org/dc/elements/1.1/"
   xmlns:cc="http://creativecommons.org/ns#"
   xmlns:rdf="http://www.w3.org/1999/02/22-rdf-syntax-ns#"
   xmlns:svg="http://www.w3.org/2000/svg"
   xmlns="http://www.w3.org/2000/svg"
   xmlns:sodipodi="http://sodipodi.sourceforge.net/DTD/sodipodi-0.dtd"
   xmlns:inkscape="http://www.inkscape.org/namespaces/inkscape"
   width="128"
   height="128"
   viewBox="0 0 128 128"
   version="1.1"
   id="svg8"
   inkscape:version="0.92.2 (5c3e80d, 2017-08-06)"
   sodipodi:docname="proximity.svg"
   inkscape:export-filename="D:\SteamLibrary\steamapps\common\GarrysMod\garrysmod\addons\reality_hud\materials\r_hud\proximity.png"
   inkscape:export-xdpi="96"
   inkscape:export-ydpi="96">
  <defs
     id="defs2" />
  <sodipodi:namedview
     id="base"
     pagecolor="#ffffff"
     bordercolor="#666666"
     borderopacity="1.0"
     inkscape:pageopacity="0.0"
     inkscape:pageshadow="2"
     inkscape:zoom="4"
     inkscape:cx="85.389885"
     inkscape:cy="49.671233"
     inkscape:document-units="px"
     inkscape:current-layer="layer1"
     showgrid="false"
     units="px"
     showborder="true"
     borderlayer="true"
     inkscape:showpageshadow="false"
     inkscape:window-width="1920"
     inkscape:window-height="1017"
     inkscape:window-x="1912"
     inkscape:window-y="-8"
     inkscape:window-maximized="1"
     inkscape:pagecheckerboard="true"
     showguides="true"
     inkscape:guide-bbox="true" />
  <metadata
     id="metadata5">
    <rdf:RDF>
      <cc:Work
         rdf:about="">
        <dc:format>image/svg+xml</dc:format>
        <dc:type
           rdf:resource="http://purl.org/dc/dcmitype/StillImage" />
        <dc:title></dc:title>
      </cc:Work>
    </rdf:RDF>
  </metadata>
  <g
     inkscape:label="Layer 1"
     inkscape:groupmode="layer"
     id="layer1"
     transform="translate(0,-545.5333)">
    <path
       style="opacity:1;fill:none;fill-opacity:0.97340423;fill-rule:evenodd;stroke:#000000;stroke-width:40;stroke-linecap:round;stroke-linejoin:round;stroke-miterlimit:4;stroke-dasharray:none;stroke-dashoffset:0;stroke-opacity:1;paint-order:markers stroke fill"
       d="M 714.86938,177.9151 A 117,117 0 0 1 802,139.00003 117,117 0 0 1 889.12381,177.9075"
       id="path4313"
       transform="translate(0,161.5333)"
       inkscape:connector-curvature="0" />
    <path
       style="opacity:1;fill:none;fill-opacity:0.97340423;fill-rule:evenodd;stroke:#000000;stroke-width:40;stroke-linecap:round;stroke-linejoin:round;stroke-miterlimit:4;stroke-dasharray:none;stroke-dashoffset:0;stroke-opacity:1;paint-order:markers stroke fill"
       d="M 889.13091,334.08462 A 117,117 0 0 1 802,373.00003 117,117 0 0 1 714.87619,334.09255"
       id="circle4298"
       transform="translate(0,161.5333)"
       inkscape:connector-curvature="0" />
    <rect
       style="opacity:1;fill:#800000;fill-opacity:0.64893613;fill-rule:evenodd;stroke:none;stroke-width:40;stroke-linecap:round;stroke-linejoin:round;stroke-miterlimit:4;stroke-dasharray:none;stroke-dashoffset:0;stroke-opacity:1;paint-order:markers stroke fill"
       id="rect4300"
       width="254"
       height="465"
       x="1202"
       y="185.03333"
       ry="7.4246202" />
    <g
       id="g4343"
       transform="matrix(0.29255302,0,0,0.2926274,-10.893606,487.35162)"
       style="stroke:#ffffff">
      <g
         style="stroke:#ffffff;stroke-width:1.03665686"
         transform="matrix(0.96585663,0,0,0.96342362,-518.61703,15.271836)"
         id="g4319">
        <path
           inkscape:connector-curvature="0"
           style="opacity:1;fill:none;fill-opacity:0.97340423;fill-rule:evenodd;stroke:#ffffff;stroke-width:41.46627045;stroke-linecap:round;stroke-linejoin:round;stroke-miterlimit:4;stroke-dasharray:none;stroke-dashoffset:0;stroke-opacity:1;paint-order:markers stroke fill"
           d="M 889.12381,177.9075 A 117,117 0 0 1 919,256.00003 v 0 0 a 117,117 0 0 1 -29.86909,78.08459"
           id="path4315"
           transform="translate(0,161.5333)" />
        <path
           inkscape:connector-curvature="0"
           style="opacity:1;fill:none;fill-opacity:0.97340423;fill-rule:evenodd;stroke:#ffffff;stroke-width:41.46627045;stroke-linecap:round;stroke-linejoin:round;stroke-miterlimit:4;stroke-dasharray:none;stroke-dashoffset:0;stroke-opacity:1;paint-order:markers stroke fill"
           d="M 714.87619,334.09255 A 117,117 0 0 1 685,256.00003 117,117 0 0 1 714.86938,177.9151"
           id="path4311"
           transform="translate(0,161.5333)" />
      </g>
      <ellipse
         ry="55.664257"
         rx="56.279949"
         cy="417.53329"
         cx="256"
         id="path4296"
         style="opacity:1;fill:#ffffff;fill-opacity:0.97340423;fill-rule:evenodd;stroke:none;stroke-width:8;stroke-linecap:round;stroke-linejoin:round;stroke-miterlimit:4;stroke-dasharray:none;stroke-dashoffset:0;stroke-opacity:1;paint-order:markers stroke fill" />
      <g
         id="g4325"
         transform="matrix(1.5149769,0,0,1.5526043,-959.01136,-230.73074)"
         style="stroke:#ffffff;stroke-width:0.65202856">
        <path
           transform="translate(0,161.5333)"
           id="path4321"
           d="M 889.12381,177.9075 A 117,117 0 0 1 919,256.00003 v 0 0 a 117,117 0 0 1 -29.86909,78.08459"
           style="opacity:1;fill:none;fill-opacity:0.97340423;fill-rule:evenodd;stroke:#ffffff;stroke-width:26.08113861;stroke-linecap:round;stroke-linejoin:round;stroke-miterlimit:4;stroke-dasharray:none;stroke-dashoffset:0;stroke-opacity:1;paint-order:markers stroke fill"
           inkscape:connector-curvature="0" />
        <path
           transform="translate(0,161.5333)"
           id="path4323"
           d="M 714.87619,334.09255 A 117,117 0 0 1 685,256.00003 117,117 0 0 1 714.86938,177.9151"
           style="opacity:1;fill:none;fill-opacity:0.97340423;fill-rule:evenodd;stroke:#ffffff;stroke-width:26.08113861;stroke-linecap:round;stroke-linejoin:round;stroke-miterlimit:4;stroke-dasharray:none;stroke-dashoffset:0;stroke-opacity:1;paint-order:markers stroke fill"
           inkscape:connector-curvature="0" />
      </g>
      <g
         style="stroke:#ffffff;stroke-width:0.65202856"
         transform="matrix(1.5149769,0,0,1.5526043,-959.01136,-230.73074)"
         id="g4331">
        <path
           inkscape:connector-curvature="0"
           style="opacity:1;fill:none;fill-opacity:0.97340423;fill-rule:evenodd;stroke:#ffffff;stroke-width:26.08113861;stroke-linecap:round;stroke-linejoin:round;stroke-miterlimit:4;stroke-dasharray:none;stroke-dashoffset:0;stroke-opacity:1;paint-order:markers stroke fill"
           d="M 889.12381,177.9075 A 117,117 0 0 1 919,256.00003 v 0 0 a 117,117 0 0 1 -29.86909,78.08459"
           id="path4327"
           transform="translate(0,161.5333)" />
        <path
           inkscape:connector-curvature="0"
           style="opacity:1;fill:none;fill-opacity:0.97340423;fill-rule:evenodd;stroke:#ffffff;stroke-width:26.08113861;stroke-linecap:round;stroke-linejoin:round;stroke-miterlimit:4;stroke-dasharray:none;stroke-dashoffset:0;stroke-opacity:1;paint-order:markers stroke fill"
           d="M 714.87619,334.09255 A 117,117 0 0 1 685,256.00003 117,117 0 0 1 714.86938,177.9151"
           id="path4329"
           transform="translate(0,161.5333)" />
      </g>
    </g>
  </g>
</svg>
