<?xml version="1.0" encoding="UTF-8" standalone="no"?>
<!-- Created with Inkscape (http://www.inkscape.org/) -->

<svg
   xmlns:dc="http://purl.org/dc/elements/1.1/"
   xmlns:cc="http://creativecommons.org/ns#"
   xmlns:rdf="http://www.w3.org/1999/02/22-rdf-syntax-ns#"
   xmlns:svg="http://www.w3.org/2000/svg"
   xmlns="http://www.w3.org/2000/svg"
   xmlns:sodipodi="http://sodipodi.sourceforge.net/DTD/sodipodi-0.dtd"
   xmlns:inkscape="http://www.inkscape.org/namespaces/inkscape"
   width="16"
   height="16"
   viewBox="0 0 4.2333331 4.2333334"
   version="1.1"
   id="svg8"
   sodipodi:docname="SKULL.svg"
   inkscape:export-filename="D:\SteamLibrary\steamapps\common\GarrysMod\garrysmod\addons\reality_hud\materials\r_hud\skull.png"
   inkscape:export-xdpi="96"
   inkscape:export-ydpi="96"
   inkscape:version="0.92.2 (5c3e80d, 2017-08-06)">
  <defs
     id="defs2" />
  <sodipodi:namedview
     id="base"
     pagecolor="#2f2f2f"
     bordercolor="#666666"
     borderopacity="1.0"
     inkscape:pageopacity="0"
     inkscape:pageshadow="2"
     inkscape:zoom="32.453901"
     inkscape:cx="14.641815"
     inkscape:cy="7.1131484"
     inkscape:document-units="px"
     inkscape:current-layer="layer1"
     showgrid="false"
     units="px"
     borderlayer="true"
     inkscape:showpageshadow="false"
     inkscape:window-width="1920"
     inkscape:window-height="1017"
     inkscape:window-x="-8"
     inkscape:window-y="-8"
     inkscape:window-maximized="1"
     showguides="true"
     inkscape:guide-bbox="true" />
  <metadata
     id="metadata5">
    <rdf:RDF>
      <cc:Work
         rdf:about="">
        <dc:format>image/svg+xml</dc:format>
        <dc:type
           rdf:resource="http://purl.org/dc/dcmitype/StillImage" />
        <dc:title></dc:title>
      </cc:Work>
    </rdf:RDF>
  </metadata>
  <g
     inkscape:label="Layer 1"
     inkscape:groupmode="layer"
     id="layer1"
     transform="translate(0,-292.76664)">
    <path
       style="opacity:1;fill:#ffffff;fill-opacity:1;fill-rule:evenodd;stroke:none;stroke-width:5.99999952;stroke-linecap:round;stroke-linejoin:miter;stroke-miterlimit:4;stroke-dasharray:none;stroke-dashoffset:0;stroke-opacity:1;paint-order:normal"
       d="M 8 0 C 4.1754015 0 1.0742301 3.1012016 1.0742188 6.9257812 C 1.0742263 9.3031804 2.274313 11.399543 4.0996094 12.646484 C 4.0993939 12.654043 4.0976562 12.66041 4.0976562 12.667969 L 4.0976562 15.072266 C 4.0976562 15.586244 4.511424 16 5.0253906 16 L 5.0585938 16 L 5.0585938 13.617188 C 5.0585938 13.222775 5.3424212 12.90625 5.6953125 12.90625 C 6.0482038 12.90625 6.3320312 13.222775 6.3320312 13.617188 L 6.3320312 16 L 6.4375 16 L 6.9472656 16 L 7.3632812 16 L 7.3632812 13.617188 C 7.3632812 13.222774 7.6471087 12.90625 8 12.90625 C 8.3528913 12.90625 8.6367181 13.222774 8.6367188 13.617188 L 8.6367188 16 L 9.0527344 16 L 9.5625 16 L 9.6679688 16 L 9.6679688 13.617188 C 9.6679688 13.222773 9.9517927 12.90625 10.304688 12.90625 C 10.657579 12.90625 10.941406 13.222773 10.941406 13.617188 L 10.941406 16 L 10.974609 16 C 11.48858 16 11.902344 15.586244 11.902344 15.072266 L 11.902344 12.667969 C 11.902344 12.66041 11.900587 12.654043 11.900391 12.646484 C 13.725683 11.399543 14.925774 9.3031804 14.925781 6.9257812 C 14.92577 3.1012016 11.824599 5.9211895e-016 8 0 z M 5.1230469 3.7675781 A 1.9110329 1.9110329 0 0 1 7.0332031 5.6777344 A 1.9110329 1.9110329 0 0 1 5.1230469 7.5878906 A 1.9110329 1.9110329 0 0 1 3.2128906 5.6777344 A 1.9110329 1.9110329 0 0 1 5.1230469 3.7675781 z M 10.876953 3.7675781 A 1.9110329 1.9110329 0 0 1 12.787109 5.6777344 A 1.9110329 1.9110329 0 0 1 10.876953 7.5878906 A 1.9110329 1.9110329 0 0 1 8.9667969 5.6777344 A 1.9110329 1.9110329 0 0 1 10.876953 3.7675781 z M 8 8.1113281 C 8.379698 8.1113281 8.8824166 8.8586719 9.0722656 9.1875 C 9.2621146 9.5163281 9.658599 10.325469 9.46875 10.654297 C 9.278901 10.983125 8.379698 11.042969 8 11.042969 C 7.620302 11.042969 6.721099 10.983125 6.53125 10.654297 C 6.341401 10.325469 6.7378854 9.5163281 6.9277344 9.1875 C 7.1175834 8.8586719 7.620302 8.1113281 8 8.1113281 z "
       transform="matrix(0.26458333,0,0,0.26458333,0,292.76664)"
       id="path815" />
  </g>
</svg>
