<?xml version="1.0" encoding="UTF-8" standalone="no"?>
<svg
   xmlns:dc="http://purl.org/dc/elements/1.1/"
   xmlns:cc="http://creativecommons.org/ns#"
   xmlns:rdf="http://www.w3.org/1999/02/22-rdf-syntax-ns#"
   xmlns:svg="http://www.w3.org/2000/svg"
   xmlns="http://www.w3.org/2000/svg"
   xmlns:sodipodi="http://sodipodi.sourceforge.net/DTD/sodipodi-0.dtd"
   xmlns:inkscape="http://www.inkscape.org/namespaces/inkscape"
   inkscape:export-ydpi="96"
   inkscape:export-xdpi="96"
   inkscape:export-filename="D:\gmod_server\garrysmod\addons\reality_loadout\materials\r_loadout\continue_icon_1.png"
   sodipodi:docname="continue_btn.svg"
   inkscape:version="1.0 (4035a4fb49, 2020-05-01)"
   id="svg8"
   version="1.1"
   viewBox="0 0 8.4666662 8.4666669"
   height="32"
   width="32">
  <defs
     id="defs2" />
  <sodipodi:namedview
     inkscape:window-maximized="1"
     inkscape:window-y="-8"
     inkscape:window-x="1912"
     inkscape:window-height="1377"
     inkscape:window-width="2560"
     showborder="true"
     inkscape:showpageshadow="false"
     inkscape:pagecheckerboard="true"
     units="px"
     showgrid="false"
     inkscape:document-rotation="0"
     inkscape:current-layer="layer1"
     inkscape:document-units="px"
     inkscape:cy="38.739208"
     inkscape:cx="-44.014186"
     inkscape:zoom="5.6568542"
     inkscape:pageshadow="2"
     inkscape:pageopacity="0"
     borderopacity="1.0"
     bordercolor="#666666"
     pagecolor="#333333"
     id="base" />
  <metadata
     id="metadata5">
    <rdf:RDF>
      <cc:Work
         rdf:about="">
        <dc:format>image/svg+xml</dc:format>
        <dc:type
           rdf:resource="http://purl.org/dc/dcmitype/StillImage" />
        <dc:title></dc:title>
      </cc:Work>
    </rdf:RDF>
  </metadata>
  <g
     id="layer1"
     inkscape:groupmode="layer"
     inkscape:label="Layer 1">
    <path
       d="M 8.4666662,4.2333331 A 4.2333331,4.2333331 0 0 1 4.2333331,8.4666662 4.2333331,4.2333331 0 0 1 0,4.2333331 4.2333331,4.2333331 0 0 1 4.2333331,0 4.2333331,4.2333331 0 0 1 8.4666662,4.2333331 Z"
       style="fill:#b8cfab;fill-opacity:1;fill-rule:evenodd;stroke:none;stroke-width:7.6915;paint-order:markers stroke fill"
       id="path830" />
    <path
       transform="scale(0.26458333)"
       d="M 7.0429688 8.921875 C 6.8958991 8.9138128 6.7811384 8.9306959 6.7050781 8.9746094 C 5.4881141 9.6772236 5.4881137 22.322776 6.7050781 23.025391 C 7.4488033 23.45478 11.819386 21.260575 15.113281 19.167969 C 15.248165 21.178833 15.505456 22.790609 15.912109 23.025391 C 17.129073 23.728005 28.082031 17.405229 28.082031 16 C 28.082031 14.594771 17.129073 8.2719944 15.912109 8.9746094 C 15.505456 9.2093907 15.248165 10.821167 15.113281 12.832031 C 12.15625 10.953434 8.3339615 8.9926459 7.0429688 8.921875 z "
       inkscape:transform-center-y="-0.12592606"
       inkscape:transform-center-x="0.063309875"
       style="fill:#2c2c2c;fill-opacity:1;fill-rule:evenodd;stroke:none;stroke-width:6.86736;stroke-linecap:round;stroke-miterlimit:4;stroke-dasharray:none;paint-order:markers stroke fill"
       id="path836" />
  </g>
</svg>
